<?xml version="1.0" encoding="utf-8"?>
<!-- Generator: Adobe Illustrator 24.1.2, SVG Export Plug-In . SVG Version: 6.00 Build 0)  -->
<svg version="1.1" id="Layer_1" xmlns="http://www.w3.org/2000/svg" xmlns:xlink="http://www.w3.org/1999/xlink" x="0px" y="0px"
	 viewBox="0 0 1920 1080" style="enable-background:new 0 0 1920 1080;" xml:space="preserve">
<style type="text/css">
	.st0{clip-path:url(#SVGID_2_);}
	.st1{opacity:0.5;fill:url(#SVGID_3_);}
	.st2{fill:url(#SVGID_4_);}
	.st3{fill:url(#SVGID_5_);}
	.st4{opacity:0.5;fill:url(#SVGID_6_);}
	.st5{opacity:0.5;fill:url(#SVGID_7_);}
	.st6{opacity:0.5;fill:url(#SVGID_8_);}
	.st7{fill:url(#SVGID_9_);}
	.st8{opacity:0.5;fill:url(#SVGID_10_);}
	.st9{display:none;opacity:0.5;clip-path:url(#SVGID_2_);}
	.st10{display:inline;opacity:0.5;}
	.st11{fill:#FFFFCE;}
	.st12{opacity:0.5;fill:url(#SVGID_11_);}
	.st13{fill:url(#SVGID_12_);}
	.st14{opacity:0.5;fill:url(#SVGID_13_);}
	.st15{fill:url(#SVGID_14_);}
	.st16{opacity:0.5;fill:url(#SVGID_15_);}
	.st17{fill:url(#SVGID_16_);}
	.st18{opacity:0.5;fill:url(#SVGID_17_);}
	.st19{fill:url(#SVGID_18_);}
	.st20{display:inline;opacity:0.3;}
	.st21{opacity:0.5;fill:url(#SVGID_19_);}
	.st22{fill:url(#SVGID_20_);}
	.st23{opacity:0.5;fill:url(#SVGID_21_);}
	.st24{fill:url(#SVGID_22_);}
	.st25{display:inline;}
	.st26{opacity:0.5;fill:url(#SVGID_23_);}
	.st27{fill:url(#SVGID_24_);}
	.st28{opacity:0.5;fill:url(#SVGID_25_);}
	.st29{fill:url(#SVGID_26_);}
	.st30{opacity:0.5;fill:url(#SVGID_27_);}
	.st31{fill:url(#SVGID_28_);}
	.st32{opacity:0.5;fill:url(#SVGID_29_);}
	.st33{fill:url(#SVGID_30_);}
	.st34{opacity:0.5;fill:url(#SVGID_31_);}
	.st35{fill:url(#SVGID_32_);}
	.st36{opacity:0.5;fill:url(#SVGID_33_);}
	.st37{fill:url(#SVGID_34_);}
	.st38{opacity:0.5;fill:url(#SVGID_35_);}
	.st39{fill:url(#SVGID_36_);}
	.st40{opacity:0.5;fill:url(#SVGID_37_);}
	.st41{fill:url(#SVGID_38_);}
	.st42{opacity:0.5;fill:url(#SVGID_39_);}
	.st43{fill:url(#SVGID_40_);}
	.st44{opacity:0.5;fill:url(#SVGID_41_);}
	.st45{fill:url(#SVGID_42_);}
	.st46{opacity:0.5;fill:url(#SVGID_43_);}
	.st47{fill:url(#SVGID_44_);}
	.st48{opacity:0.5;fill:url(#SVGID_45_);}
	.st49{fill:url(#SVGID_46_);}
	.st50{opacity:0.5;fill:url(#SVGID_47_);}
	.st51{fill:url(#SVGID_48_);}
	.st52{opacity:0.5;fill:url(#SVGID_49_);}
	.st53{fill:url(#SVGID_50_);}
	.st54{opacity:0.5;fill:url(#SVGID_51_);}
	.st55{fill:url(#SVGID_52_);}
	.st56{opacity:0.5;fill:url(#SVGID_53_);}
	.st57{fill:url(#SVGID_54_);}
	.st58{display:none;clip-path:url(#SVGID_2_);}
	.st59{display:inline;fill:none;stroke:#FFFFCE;stroke-width:1.4;stroke-miterlimit:10;}
	.st60{display:inline;fill:#FFFFCE;}
</style>
<g>
	<defs>
		<rect id="SVGID_1_" y="0" width="1920" height="1080.5"/>
	</defs>
	<clipPath id="SVGID_2_">
		<use xlink:href="#SVGID_1_"  style="overflow:visible;"/>
	</clipPath>
	<g class="st0">
		<linearGradient id="SVGID_3_" gradientUnits="userSpaceOnUse" x1="-7.601" y1="311.3735" x2="791.7166" y2="-21.0639">
			<stop  offset="0" style="stop-color:#FFFFFF"/>
			<stop  offset="1" style="stop-color:#FFFFFF;stop-opacity:0"/>
		</linearGradient>
		<path class="st1" d="M780.6-215.3c0.2,0.6,0.4,1.2,0.5,1.9c7.4,54.9,14.8,109.8,22.1,164.7c3.2,85.3-14.6,164.9-53.4,238.7
			c-0.7,2-1.3,4.1-2,6.1c77.7-40.5,157.6-137.5,291.5-278.1C1149.4-197.8,992-223.2,780.6-215.3z"/>
		<linearGradient id="SVGID_4_" gradientUnits="userSpaceOnUse" x1="1114.9883" y1="880.5616" x2="772.9031" y2="1078.6111">
			<stop  offset="0" style="stop-color:#FD9824"/>
			<stop  offset="1" style="stop-color:#E20268"/>
		</linearGradient>
		<path class="st2" d="M1384.8,1080.5H266.4c13-38.4,50.8-92.7,151.8-152.5c92.5-54.8,209.6-117.2,329.7-142.3
			c132-27.7,267.7-10.3,378,111.6C1200,979.2,1293.6,1038.3,1384.8,1080.5z"/>
		<linearGradient id="SVGID_5_" gradientUnits="userSpaceOnUse" x1="771.0178" y1="705.692" x2="67.6315" y2="1176.3032">
			<stop  offset="0" style="stop-color:#FD9824"/>
			<stop  offset="1" style="stop-color:#E20268"/>
		</linearGradient>
		<path class="st3" d="M907,1080.5H0V755.8c67.4-4.2,144.4-18.1,214.1-52.9c166.9-83.2,433.1-124.2,533.7,82.8
			c4.6,9.4,8.8,19.3,12.6,29.8C808.7,946,850.2,1027.5,907,1080.5z"/>
		<linearGradient id="SVGID_6_" gradientUnits="userSpaceOnUse" x1="0" y1="683.1382" x2="1575.8336" y2="683.1382">
			<stop  offset="0" style="stop-color:#FFFFFF"/>
			<stop  offset="1" style="stop-color:#FFFFFF;stop-opacity:0"/>
		</linearGradient>
		<path class="st4" d="M990.9,493c-65.4-103.9-168.7-175.6-284.5-207.2c-22.7,37.7-50.8,72.2-84.5,103.5
			c-56.1,60.4-122.6,103.1-199.4,128.1c-73.8,38.8-153.4,56.6-238.7,53.4C120,570.6,58.8,561.3,0,543v537.5h1575.8
			C1187.4,968.3,1104.9,674.1,990.9,493z"/>
		<linearGradient id="SVGID_7_" gradientUnits="userSpaceOnUse" x1="0" y1="738.6154" x2="1104.1787" y2="738.6154">
			<stop  offset="0" style="stop-color:#FFFFFF"/>
			<stop  offset="1" style="stop-color:#FFFFFF;stop-opacity:0"/>
		</linearGradient>
		<path class="st5" d="M931.7,756.5c-54.4-181.1-160.9-320.4-316.9-359.7c-54.6,56.5-118.7,96.7-192.3,120.7
			c-73.8,38.8-153.4,56.6-238.7,53.4c-60.4-0.2-118.5-8.5-174.4-24.9c-3.2,1.2-6.3,2.3-9.4,3.5v531.2h1104.2
			C1039.3,994.8,969.3,881.8,931.7,756.5z"/>
		<linearGradient id="SVGID_8_" gradientUnits="userSpaceOnUse" x1="0" y1="925.6476" x2="1001.7536" y2="925.6476">
			<stop  offset="0" style="stop-color:#000000"/>
			<stop  offset="1" style="stop-color:#000000;stop-opacity:0"/>
		</linearGradient>
		<path class="st6" d="M1001.8,1080.5H0v-22.2c127-148.4,303.2-294.6,501-287.2C786.7,781.7,855.4,947.9,1001.8,1080.5z"/>
		<linearGradient id="SVGID_9_" gradientUnits="userSpaceOnUse" x1="13.501" y1="2601.0674" x2="2183.542" y2="714.7395">
			<stop  offset="0" style="stop-color:#FFFFFF"/>
			<stop  offset="1" style="stop-color:#FFFFFF;stop-opacity:0"/>
		</linearGradient>
		<path class="st7" d="M1899.7,917.4c-16.8,8.8-33.8,16.5-51.2,23.2c26.9,22.7,50.9,45.8,71.5,68.7v-99
			C1913.3,912.8,1906.5,915.2,1899.7,917.4z"/>
		<linearGradient id="SVGID_10_" gradientUnits="userSpaceOnUse" x1="1129.6385" y1="511.5522" x2="1840.7587" y2="905.9872">
			<stop  offset="0" style="stop-color:#000000"/>
			<stop  offset="1" style="stop-color:#000000;stop-opacity:0"/>
		</linearGradient>
		<path class="st8" d="M1899.7,917.4c-10.2,5.4-20.5,10.3-31,14.9c18.1,19,35.3,38.1,51.3,57.3v-79.3
			C1913.3,912.8,1906.5,915.2,1899.7,917.4z"/>
	</g>
	<g class="st9">
		<g class="st10">
			<path class="st11" d="M228.2,113.5c0,1.6-1.5,2.8-3.4,2.8c-1.9,0-3.4-1.3-3.4-2.8c0-1.6,1.5-2.8,3.4-2.8
				C226.7,110.7,228.2,112,228.2,113.5z"/>
			<linearGradient id="SVGID_11_" gradientUnits="userSpaceOnUse" x1="211.7024" y1="124.1589" x2="240.544" y2="100.7512">
				<stop  offset="0" style="stop-color:#FFFFFF"/>
				<stop  offset="1" style="stop-color:#FFFFFF;stop-opacity:0"/>
			</linearGradient>
			<path class="st12" d="M234.3,113.5c0,4.4-4.3,8-9.5,8c-5.2,0-9.5-3.6-9.5-8c0-4.4,4.3-8,9.5-8C230,105.5,234.3,109.1,234.3,113.5
				z"/>
			
				<radialGradient id="SVGID_12_" cx="10612.2188" cy="1199.8787" r="5.9247" gradientTransform="matrix(-2.56 0 0 -2.161 27392.0762 2706.4673)" gradientUnits="userSpaceOnUse">
				<stop  offset="0" style="stop-color:#FFFFFF"/>
				<stop  offset="1" style="stop-color:#FFFFFF;stop-opacity:0"/>
			</radialGradient>
			<path class="st13" d="M209.6,113.5c0-7.1,6.8-12.8,15.2-12.8c8.4,0,15.2,5.7,15.2,12.8s-6.8,12.8-15.2,12.8
				C216.4,126.3,209.6,120.6,209.6,113.5z"/>
		</g>
		<g class="st10">
			<path class="st11" d="M998.5,235.8c0,1.6-1.5,2.8-3.4,2.8c-1.9,0-3.4-1.3-3.4-2.8c0-1.6,1.5-2.8,3.4-2.8
				C997,233,998.5,234.2,998.5,235.8z"/>
			<linearGradient id="SVGID_13_" gradientUnits="userSpaceOnUse" x1="982.0438" y1="246.4394" x2="1010.8855" y2="223.0316">
				<stop  offset="0" style="stop-color:#FFFFFF"/>
				<stop  offset="1" style="stop-color:#FFFFFF;stop-opacity:0"/>
			</linearGradient>
			<path class="st14" d="M1004.6,235.8c0,4.4-4.3,8-9.5,8c-5.2,0-9.5-3.6-9.5-8c0-4.4,4.3-8,9.5-8
				C1000.4,227.8,1004.6,231.4,1004.6,235.8z"/>
			
				<radialGradient id="SVGID_14_" cx="10311.3037" cy="1143.2935" r="5.9247" gradientTransform="matrix(-2.56 0 0 -2.161 27392.0762 2706.4673)" gradientUnits="userSpaceOnUse">
				<stop  offset="0" style="stop-color:#FFFFFF"/>
				<stop  offset="1" style="stop-color:#FFFFFF;stop-opacity:0"/>
			</radialGradient>
			<path class="st15" d="M980,235.8c0-7.1,6.8-12.8,15.2-12.8c8.4,0,15.2,5.7,15.2,12.8c0,7.1-6.8,12.8-15.2,12.8
				C986.8,248.6,980,242.9,980,235.8z"/>
		</g>
		<g class="st10">
			<path class="st11" d="M910.4,175.7c0,1.6-1.5,2.8-3.4,2.8c-1.9,0-3.4-1.3-3.4-2.8c0-1.6,1.5-2.8,3.4-2.8
				C908.9,172.9,910.4,174.1,910.4,175.7z"/>
			<linearGradient id="SVGID_15_" gradientUnits="userSpaceOnUse" x1="893.9145" y1="186.325" x2="922.7562" y2="162.9172">
				<stop  offset="0" style="stop-color:#FFFFFF"/>
				<stop  offset="1" style="stop-color:#FFFFFF;stop-opacity:0"/>
			</linearGradient>
			<path class="st16" d="M916.5,175.7c0,4.4-4.3,8-9.5,8c-5.2,0-9.5-3.6-9.5-8c0-4.4,4.3-8,9.5-8
				C912.3,167.7,916.5,171.3,916.5,175.7z"/>
			
				<radialGradient id="SVGID_16_" cx="10345.7295" cy="1171.1115" r="5.9247" gradientTransform="matrix(-2.56 0 0 -2.161 27392.0762 2706.4673)" gradientUnits="userSpaceOnUse">
				<stop  offset="0" style="stop-color:#FFFFFF"/>
				<stop  offset="1" style="stop-color:#FFFFFF;stop-opacity:0"/>
			</radialGradient>
			<path class="st17" d="M891.8,175.7c0-7.1,6.8-12.8,15.2-12.8c8.4,0,15.2,5.7,15.2,12.8c0,7.1-6.8,12.8-15.2,12.8
				C898.6,188.5,891.8,182.8,891.8,175.7z"/>
		</g>
		<g class="st10">
			<path class="st11" d="M1122.7,831.5c0,1.6-1.5,2.8-3.4,2.8c-1.9,0-3.4-1.3-3.4-2.8c0-1.6,1.5-2.8,3.4-2.8
				C1121.2,828.7,1122.7,830,1122.7,831.5z"/>
			<linearGradient id="SVGID_17_" gradientUnits="userSpaceOnUse" x1="1106.2529" y1="842.1553" x2="1135.0946" y2="818.7476">
				<stop  offset="0" style="stop-color:#FFFFFF"/>
				<stop  offset="1" style="stop-color:#FFFFFF;stop-opacity:0"/>
			</linearGradient>
			<path class="st18" d="M1128.9,831.5c0,4.4-4.3,8-9.5,8c-5.2,0-9.5-3.6-9.5-8c0-4.4,4.3-8,9.5-8
				C1124.6,823.5,1128.9,827.1,1128.9,831.5z"/>
			
				<radialGradient id="SVGID_18_" cx="10262.7852" cy="867.6263" r="5.9247" gradientTransform="matrix(-2.56 0 0 -2.161 27392.0762 2706.4673)" gradientUnits="userSpaceOnUse">
				<stop  offset="0" style="stop-color:#FFFFFF"/>
				<stop  offset="1" style="stop-color:#FFFFFF;stop-opacity:0"/>
			</radialGradient>
			<ellipse class="st19" cx="1119.3" cy="831.5" rx="15.2" ry="12.8"/>
		</g>
		<g class="st20">
			<path class="st11" d="M589.5,350.6c0,1.6-1.5,2.8-3.4,2.8c-1.9,0-3.4-1.3-3.4-2.8c0-1.6,1.5-2.8,3.4-2.8
				C588,347.7,589.5,349,589.5,350.6z"/>
			<linearGradient id="SVGID_19_" gradientUnits="userSpaceOnUse" x1="573.0401" y1="361.1835" x2="601.8817" y2="337.7758">
				<stop  offset="0" style="stop-color:#FFFFFF"/>
				<stop  offset="1" style="stop-color:#FFFFFF;stop-opacity:0"/>
			</linearGradient>
			<path class="st21" d="M595.6,350.6c0,4.4-4.3,8-9.5,8c-5.2,0-9.5-3.6-9.5-8s4.3-8,9.5-8C591.4,342.5,595.6,346.1,595.6,350.6z"/>
			
				<radialGradient id="SVGID_20_" cx="10471.0713" cy="1090.1957" r="5.9246" gradientTransform="matrix(-2.56 0 0 -2.161 27392.0762 2706.4673)" gradientUnits="userSpaceOnUse">
				<stop  offset="0" style="stop-color:#FFFFFF"/>
				<stop  offset="1" style="stop-color:#FFFFFF;stop-opacity:0"/>
			</radialGradient>
			<path class="st22" d="M571,350.6c0-7.1,6.8-12.8,15.2-12.8s15.2,5.7,15.2,12.8c0,7.1-6.8,12.8-15.2,12.8S571,357.6,571,350.6z"/>
		</g>
		<g class="st20">
			<path class="st11" d="M504.2,47.3c0,1.6-1.5,2.8-3.4,2.8c-1.9,0-3.4-1.3-3.4-2.8s1.5-2.8,3.4-2.8
				C502.7,44.4,504.2,45.7,504.2,47.3z"/>
			<linearGradient id="SVGID_21_" gradientUnits="userSpaceOnUse" x1="487.784" y1="57.8902" x2="516.6257" y2="34.4825">
				<stop  offset="0" style="stop-color:#FFFFFF"/>
				<stop  offset="1" style="stop-color:#FFFFFF;stop-opacity:0"/>
			</linearGradient>
			<path class="st23" d="M510.4,47.3c0,4.4-4.3,8-9.5,8c-5.2,0-9.5-3.6-9.5-8s4.3-8,9.5-8C506.1,39.2,510.4,42.8,510.4,47.3z"/>
			
				<radialGradient id="SVGID_22_" cx="10504.374" cy="1230.5444" r="5.9247" gradientTransform="matrix(-2.56 0 0 -2.161 27392.0762 2706.4673)" gradientUnits="userSpaceOnUse">
				<stop  offset="0" style="stop-color:#FFFFFF"/>
				<stop  offset="1" style="stop-color:#FFFFFF;stop-opacity:0"/>
			</radialGradient>
			<ellipse class="st24" cx="500.9" cy="47.3" rx="15.2" ry="12.8"/>
		</g>
		<g class="st25">
			<path class="st11" d="M1765.4,948.4c0,1.6-1.5,2.8-3.4,2.8c-1.9,0-3.4-1.3-3.4-2.8c0-1.6,1.5-2.8,3.4-2.8
				C1763.9,945.6,1765.4,946.8,1765.4,948.4z"/>
			<linearGradient id="SVGID_23_" gradientUnits="userSpaceOnUse" x1="1748.942" y1="959.0253" x2="1777.7836" y2="935.6176">
				<stop  offset="0" style="stop-color:#FFFFFF"/>
				<stop  offset="1" style="stop-color:#FFFFFF;stop-opacity:0"/>
			</linearGradient>
			<path class="st26" d="M1771.5,948.4c0,4.4-4.3,8-9.5,8s-9.5-3.6-9.5-8s4.3-8,9.5-8S1771.5,944,1771.5,948.4z"/>
			
				<radialGradient id="SVGID_24_" cx="10011.7344" cy="813.5449" r="5.9247" gradientTransform="matrix(-2.56 0 0 -2.161 27392.0762 2706.4673)" gradientUnits="userSpaceOnUse">
				<stop  offset="0" style="stop-color:#FFFFFF"/>
				<stop  offset="1" style="stop-color:#FFFFFF;stop-opacity:0"/>
			</radialGradient>
			<path class="st27" d="M1746.9,948.4c0-7.1,6.8-12.8,15.2-12.8s15.2,5.7,15.2,12.8s-6.8,12.8-15.2,12.8S1746.9,955.5,1746.9,948.4
				z"/>
		</g>
		<g class="st25">
			<path class="st11" d="M1861.6,686.9c0,1.6-1.5,2.8-3.4,2.8c-1.9,0-3.4-1.3-3.4-2.8c0-1.6,1.5-2.8,3.4-2.8
				C1860.1,684,1861.6,685.3,1861.6,686.9z"/>
			<linearGradient id="SVGID_25_" gradientUnits="userSpaceOnUse" x1="1845.1771" y1="697.4775" x2="1874.0188" y2="674.0698">
				<stop  offset="0" style="stop-color:#FFFFFF"/>
				<stop  offset="1" style="stop-color:#FFFFFF;stop-opacity:0"/>
			</linearGradient>
			<path class="st28" d="M1867.8,686.9c0,4.4-4.3,8-9.5,8s-9.5-3.6-9.5-8s4.3-8,9.5-8S1867.8,682.4,1867.8,686.9z"/>
			
				<radialGradient id="SVGID_26_" cx="9974.1426" cy="934.5759" r="5.9247" gradientTransform="matrix(-2.56 0 0 -2.161 27392.0762 2706.4673)" gradientUnits="userSpaceOnUse">
				<stop  offset="0" style="stop-color:#FFFFFF"/>
				<stop  offset="1" style="stop-color:#FFFFFF;stop-opacity:0"/>
			</radialGradient>
			<path class="st29" d="M1843.1,686.9c0-7.1,6.8-12.8,15.2-12.8s15.2,5.7,15.2,12.8c0,7.1-6.8,12.8-15.2,12.8
				S1843.1,693.9,1843.1,686.9z"/>
		</g>
		<g class="st20">
			<path class="st11" d="M1511.4,572.2c0,1.6-1.5,2.8-3.4,2.8s-3.4-1.3-3.4-2.8c0-1.6,1.5-2.8,3.4-2.8S1511.4,570.6,1511.4,572.2z"
				/>
			<linearGradient id="SVGID_27_" gradientUnits="userSpaceOnUse" x1="1494.984" y1="582.8231" x2="1523.8258" y2="559.4153">
				<stop  offset="0" style="stop-color:#FFFFFF"/>
				<stop  offset="1" style="stop-color:#FFFFFF;stop-opacity:0"/>
			</linearGradient>
			<path class="st30" d="M1517.6,572.2c0,4.4-4.3,8-9.5,8s-9.5-3.6-9.5-8c0-4.4,4.3-8,9.5-8S1517.6,567.8,1517.6,572.2z"/>
			
				<radialGradient id="SVGID_28_" cx="10110.9365" cy="987.6322" r="5.9247" gradientTransform="matrix(-2.56 0 0 -2.161 27392.0762 2706.4673)" gradientUnits="userSpaceOnUse">
				<stop  offset="0" style="stop-color:#FFFFFF"/>
				<stop  offset="1" style="stop-color:#FFFFFF;stop-opacity:0"/>
			</radialGradient>
			<path class="st31" d="M1492.9,572.2c0-7.1,6.8-12.8,15.2-12.8s15.2,5.7,15.2,12.8c0,7.1-6.8,12.8-15.2,12.8
				S1492.9,579.3,1492.9,572.2z"/>
		</g>
		<g class="st10">
			<path class="st11" d="M1448.7,932.8c0,1.6-1.5,2.8-3.4,2.8c-1.9,0-3.4-1.3-3.4-2.8c0-1.6,1.5-2.8,3.4-2.8
				C1447.2,929.9,1448.7,931.2,1448.7,932.8z"/>
			<linearGradient id="SVGID_29_" gradientUnits="userSpaceOnUse" x1="1432.2106" y1="943.3762" x2="1461.0521" y2="919.9685">
				<stop  offset="0" style="stop-color:#FFFFFF"/>
				<stop  offset="1" style="stop-color:#FFFFFF;stop-opacity:0"/>
			</linearGradient>
			<path class="st32" d="M1454.8,932.8c0,4.4-4.3,8-9.5,8c-5.2,0-9.5-3.6-9.5-8s4.3-8,9.5-8C1450.6,924.7,1454.8,928.3,1454.8,932.8
				z"/>
			
				<radialGradient id="SVGID_30_" cx="10135.458" cy="820.7864" r="5.9247" gradientTransform="matrix(-2.56 0 0 -2.161 27392.0762 2706.4673)" gradientUnits="userSpaceOnUse">
				<stop  offset="0" style="stop-color:#FFFFFF"/>
				<stop  offset="1" style="stop-color:#FFFFFF;stop-opacity:0"/>
			</radialGradient>
			<path class="st33" d="M1430.1,932.8c0-7.1,6.8-12.8,15.2-12.8s15.2,5.7,15.2,12.8c0,7.1-6.8,12.8-15.2,12.8
				S1430.1,939.8,1430.1,932.8z"/>
		</g>
		<g class="st10">
			<path class="st11" d="M346.5,775c0,1.6-1.5,2.8-3.4,2.8c-1.9,0-3.4-1.3-3.4-2.8c0-1.6,1.5-2.8,3.4-2.8
				C345,772.2,346.5,773.5,346.5,775z"/>
			<linearGradient id="SVGID_31_" gradientUnits="userSpaceOnUse" x1="330.0261" y1="785.65" x2="358.8675" y2="762.2426">
				<stop  offset="0" style="stop-color:#FFFFFF"/>
				<stop  offset="1" style="stop-color:#FFFFFF;stop-opacity:0"/>
			</linearGradient>
			<path class="st34" d="M352.6,775c0,4.4-4.3,8-9.5,8s-9.5-3.6-9.5-8s4.3-8,9.5-8S352.6,770.6,352.6,775z"/>
			
				<radialGradient id="SVGID_32_" cx="10565.999" cy="893.7741" r="5.9247" gradientTransform="matrix(-2.56 0 0 -2.161 27392.0762 2706.4673)" gradientUnits="userSpaceOnUse">
				<stop  offset="0" style="stop-color:#FFFFFF"/>
				<stop  offset="1" style="stop-color:#FFFFFF;stop-opacity:0"/>
			</radialGradient>
			<path class="st35" d="M328,775c0-7.1,6.8-12.8,15.2-12.8c8.4,0,15.2,5.7,15.2,12.8s-6.8,12.8-15.2,12.8
				C334.7,787.8,328,782.1,328,775z"/>
		</g>
		<g class="st10">
			<path class="st11" d="M243.3,399.4c0,1.6-1.5,2.8-3.4,2.8s-3.4-1.3-3.4-2.8c0-1.6,1.5-2.8,3.4-2.8S243.3,397.9,243.3,399.4z"/>
			<linearGradient id="SVGID_33_" gradientUnits="userSpaceOnUse" x1="226.8694" y1="410.0556" x2="255.7111" y2="386.6479">
				<stop  offset="0" style="stop-color:#FFFFFF"/>
				<stop  offset="1" style="stop-color:#FFFFFF;stop-opacity:0"/>
			</linearGradient>
			<path class="st36" d="M249.5,399.4c0,4.4-4.3,8-9.5,8s-9.5-3.6-9.5-8s4.3-8,9.5-8S249.5,395,249.5,399.4z"/>
			
				<radialGradient id="SVGID_34_" cx="10606.2939" cy="1067.5802" r="5.9247" gradientTransform="matrix(-2.56 0 0 -2.161 27392.0762 2706.4673)" gradientUnits="userSpaceOnUse">
				<stop  offset="0" style="stop-color:#FFFFFF"/>
				<stop  offset="1" style="stop-color:#FFFFFF;stop-opacity:0"/>
			</radialGradient>
			<path class="st37" d="M224.8,399.4c0-7.1,6.8-12.8,15.2-12.8s15.2,5.7,15.2,12.8c0,7.1-6.8,12.8-15.2,12.8
				S224.8,406.5,224.8,399.4z"/>
		</g>
		<g class="st20">
			<ellipse class="st11" cx="224.8" cy="945.6" rx="3.4" ry="2.8"/>
			<linearGradient id="SVGID_35_" gradientUnits="userSpaceOnUse" x1="211.7024" y1="956.1794" x2="240.544" y2="932.7717">
				<stop  offset="0" style="stop-color:#FFFFFF"/>
				<stop  offset="1" style="stop-color:#FFFFFF;stop-opacity:0"/>
			</linearGradient>
			<path class="st38" d="M234.3,945.6c0,4.4-4.3,8-9.5,8c-5.2,0-9.5-3.6-9.5-8s4.3-8,9.5-8C230,937.5,234.3,941.1,234.3,945.6z"/>
			
				<radialGradient id="SVGID_36_" cx="10612.2188" cy="814.8618" r="5.9247" gradientTransform="matrix(-2.56 0 0 -2.161 27392.0762 2706.4673)" gradientUnits="userSpaceOnUse">
				<stop  offset="0" style="stop-color:#FFFFFF"/>
				<stop  offset="1" style="stop-color:#FFFFFF;stop-opacity:0"/>
			</radialGradient>
			<ellipse class="st39" cx="224.8" cy="945.6" rx="15.2" ry="12.8"/>
		</g>
		<g class="st20">
			<path class="st11" d="M653.5,989.6c0,1.6-1.5,2.8-3.4,2.8s-3.4-1.3-3.4-2.8c0-1.6,1.5-2.8,3.4-2.8S653.5,988,653.5,989.6z"/>
			<linearGradient id="SVGID_37_" gradientUnits="userSpaceOnUse" x1="636.9886" y1="1000.2333" x2="665.8302" y2="976.8256">
				<stop  offset="0" style="stop-color:#FFFFFF"/>
				<stop  offset="1" style="stop-color:#FFFFFF;stop-opacity:0"/>
			</linearGradient>
			<path class="st40" d="M659.6,989.6c0,4.4-4.3,8-9.5,8c-5.2,0-9.5-3.6-9.5-8s4.3-8,9.5-8C655.3,981.6,659.6,985.2,659.6,989.6z"/>
			
				<radialGradient id="SVGID_38_" cx="10446.0918" cy="794.4759" r="5.9247" gradientTransform="matrix(-2.56 0 0 -2.161 27392.0762 2706.4673)" gradientUnits="userSpaceOnUse">
				<stop  offset="0" style="stop-color:#FFFFFF"/>
				<stop  offset="1" style="stop-color:#FFFFFF;stop-opacity:0"/>
			</radialGradient>
			<path class="st41" d="M634.9,989.6c0-7.1,6.8-12.8,15.2-12.8c8.4,0,15.2,5.7,15.2,12.8s-6.8,12.8-15.2,12.8
				C641.7,1002.4,634.9,996.7,634.9,989.6z"/>
		</g>
		<g class="st25">
			<path class="st11" d="M316.2,453.6c0,1.6-1.5,2.8-3.4,2.8c-1.9,0-3.4-1.3-3.4-2.8s1.5-2.8,3.4-2.8
				C314.6,450.8,316.2,452,316.2,453.6z"/>
			<linearGradient id="SVGID_39_" gradientUnits="userSpaceOnUse" x1="299.6916" y1="464.2348" x2="328.5332" y2="440.8271">
				<stop  offset="0" style="stop-color:#FFFFFF"/>
				<stop  offset="1" style="stop-color:#FFFFFF;stop-opacity:0"/>
			</linearGradient>
			<path class="st42" d="M322.3,453.6c0,4.4-4.3,8-9.5,8s-9.5-3.6-9.5-8s4.3-8,9.5-8S322.3,449.2,322.3,453.6z"/>
			
				<radialGradient id="SVGID_40_" cx="10577.8477" cy="1042.5088" r="5.9247" gradientTransform="matrix(-2.56 0 0 -2.161 27392.0762 2706.4673)" gradientUnits="userSpaceOnUse">
				<stop  offset="0" style="stop-color:#FFFFFF"/>
				<stop  offset="1" style="stop-color:#FFFFFF;stop-opacity:0"/>
			</radialGradient>
			<path class="st43" d="M297.6,453.6c0-7.1,6.8-12.8,15.2-12.8c8.4,0,15.2,5.7,15.2,12.8c0,7.1-6.8,12.8-15.2,12.8
				C304.4,466.4,297.6,460.7,297.6,453.6z"/>
		</g>
		<g class="st25">
			<path class="st11" d="M69.4,610.7c0,1.6-1.5,2.8-3.4,2.8s-3.4-1.3-3.4-2.8c0-1.6,1.5-2.8,3.4-2.8S69.4,609.1,69.4,610.7z"/>
			<linearGradient id="SVGID_41_" gradientUnits="userSpaceOnUse" x1="52.9144" y1="621.317" x2="81.756" y2="597.9093">
				<stop  offset="0" style="stop-color:#FFFFFF"/>
				<stop  offset="1" style="stop-color:#FFFFFF;stop-opacity:0"/>
			</linearGradient>
			<path class="st44" d="M75.5,610.7c0,4.4-4.3,8-9.5,8s-9.5-3.6-9.5-8s4.3-8,9.5-8S75.5,606.3,75.5,610.7z"/>
			
				<radialGradient id="SVGID_42_" cx="10674.2451" cy="969.8191" r="5.9247" gradientTransform="matrix(-2.56 0 0 -2.161 27392.0762 2706.4673)" gradientUnits="userSpaceOnUse">
				<stop  offset="0" style="stop-color:#FFFFFF"/>
				<stop  offset="1" style="stop-color:#FFFFFF;stop-opacity:0"/>
			</radialGradient>
			<path class="st45" d="M50.8,610.7c0-7.1,6.8-12.8,15.2-12.8s15.2,5.7,15.2,12.8s-6.8,12.8-15.2,12.8S50.8,617.8,50.8,610.7z"/>
		</g>
		<g class="st25">
			<ellipse class="st11" cx="650.1" cy="121.6" rx="3.4" ry="2.8"/>
			<linearGradient id="SVGID_43_" gradientUnits="userSpaceOnUse" x1="636.9886" y1="132.1826" x2="665.8303" y2="108.7749">
				<stop  offset="0" style="stop-color:#FFFFFF"/>
				<stop  offset="1" style="stop-color:#FFFFFF;stop-opacity:0"/>
			</linearGradient>
			<path class="st46" d="M659.6,121.6c0,4.4-4.3,8-9.5,8c-5.2,0-9.5-3.6-9.5-8c0-4.4,4.3-8,9.5-8
				C655.3,113.5,659.6,117.1,659.6,121.6z"/>
			
				<radialGradient id="SVGID_44_" cx="10446.0918" cy="1196.1658" r="5.9247" gradientTransform="matrix(-2.56 0 0 -2.161 27392.0762 2706.4673)" gradientUnits="userSpaceOnUse">
				<stop  offset="0" style="stop-color:#FFFFFF"/>
				<stop  offset="1" style="stop-color:#FFFFFF;stop-opacity:0"/>
			</radialGradient>
			<ellipse class="st47" cx="650.1" cy="121.6" rx="15.2" ry="12.8"/>
		</g>
		<g class="st20">
			<path class="st11" d="M1673.6,344.2c0,1.6-1.5,2.8-3.4,2.8c-1.9,0-3.4-1.3-3.4-2.8c0-1.6,1.5-2.8,3.4-2.8
				C1672.1,341.4,1673.6,342.6,1673.6,344.2z"/>
			<linearGradient id="SVGID_45_" gradientUnits="userSpaceOnUse" x1="1657.1252" y1="354.8295" x2="1685.9669" y2="331.4218">
				<stop  offset="0" style="stop-color:#FFFFFF"/>
				<stop  offset="1" style="stop-color:#FFFFFF;stop-opacity:0"/>
			</linearGradient>
			<path class="st48" d="M1679.7,344.2c0,4.4-4.3,8-9.5,8c-5.2,0-9.5-3.6-9.5-8s4.3-8,9.5-8C1675.5,336.2,1679.7,339.8,1679.7,344.2
				z"/>
			
				<radialGradient id="SVGID_46_" cx="10047.6006" cy="1093.136" r="5.9246" gradientTransform="matrix(-2.56 0 0 -2.161 27392.0762 2706.4673)" gradientUnits="userSpaceOnUse">
				<stop  offset="0" style="stop-color:#FFFFFF"/>
				<stop  offset="1" style="stop-color:#FFFFFF;stop-opacity:0"/>
			</radialGradient>
			<path class="st49" d="M1655.1,344.2c0-7.1,6.8-12.8,15.2-12.8c8.4,0,15.2,5.7,15.2,12.8c0,7.1-6.8,12.8-15.2,12.8
				C1661.8,357,1655.1,351.3,1655.1,344.2z"/>
		</g>
		<g class="st25">
			<path class="st11" d="M1419.8,178.5c0,1.6-1.5,2.8-3.4,2.8c-1.9,0-3.4-1.3-3.4-2.8c0-1.6,1.5-2.8,3.4-2.8
				C1418.3,175.7,1419.8,177,1419.8,178.5z"/>
			<linearGradient id="SVGID_47_" gradientUnits="userSpaceOnUse" x1="1403.3654" y1="189.1708" x2="1432.2069" y2="165.7631">
				<stop  offset="0" style="stop-color:#FFFFFF"/>
				<stop  offset="1" style="stop-color:#FFFFFF;stop-opacity:0"/>
			</linearGradient>
			<path class="st50" d="M1426,178.5c0,4.4-4.3,8-9.5,8c-5.2,0-9.5-3.6-9.5-8s4.3-8,9.5-8C1421.7,170.5,1426,174.1,1426,178.5z"/>
			
				<radialGradient id="SVGID_48_" cx="10146.7256" cy="1169.7944" r="5.9247" gradientTransform="matrix(-2.56 0 0 -2.161 27392.0762 2706.4673)" gradientUnits="userSpaceOnUse">
				<stop  offset="0" style="stop-color:#FFFFFF"/>
				<stop  offset="1" style="stop-color:#FFFFFF;stop-opacity:0"/>
			</radialGradient>
			<path class="st51" d="M1401.3,178.5c0-7.1,6.8-12.8,15.2-12.8s15.2,5.7,15.2,12.8s-6.8,12.8-15.2,12.8S1401.3,185.6,1401.3,178.5
				z"/>
		</g>
		<g class="st25">
			<path class="st11" d="M1063.9,767c0,1.6-1.5,2.8-3.4,2.8c-1.9,0-3.4-1.3-3.4-2.8c0-1.6,1.5-2.8,3.4-2.8
				C1062.3,764.2,1063.9,765.4,1063.9,767z"/>
			<linearGradient id="SVGID_49_" gradientUnits="userSpaceOnUse" x1="1047.3889" y1="777.6265" x2="1076.2305" y2="754.2188">
				<stop  offset="0" style="stop-color:#FFFFFF"/>
				<stop  offset="1" style="stop-color:#FFFFFF;stop-opacity:0"/>
			</linearGradient>
			<path class="st52" d="M1070,767c0,4.4-4.3,8-9.5,8c-5.2,0-9.5-3.6-9.5-8s4.3-8,9.5-8C1065.7,759,1070,762.6,1070,767z"/>
			
				<radialGradient id="SVGID_50_" cx="10285.7783" cy="897.4871" r="5.9247" gradientTransform="matrix(-2.56 0 0 -2.161 27392.0762 2706.4673)" gradientUnits="userSpaceOnUse">
				<stop  offset="0" style="stop-color:#FFFFFF"/>
				<stop  offset="1" style="stop-color:#FFFFFF;stop-opacity:0"/>
			</radialGradient>
			<ellipse class="st53" cx="1060.5" cy="767" rx="15.2" ry="12.8"/>
		</g>
		<g class="st20">
			<path class="st11" d="M1200.3,108.8c0,1.6-1.5,2.8-3.4,2.8c-1.9,0-3.4-1.3-3.4-2.8c0-1.6,1.5-2.8,3.4-2.8
				C1198.8,105.9,1200.3,107.2,1200.3,108.8z"/>
			<linearGradient id="SVGID_51_" gradientUnits="userSpaceOnUse" x1="1183.876" y1="119.3793" x2="1212.7175" y2="95.9716">
				<stop  offset="0" style="stop-color:#FFFFFF"/>
				<stop  offset="1" style="stop-color:#FFFFFF;stop-opacity:0"/>
			</linearGradient>
			<path class="st54" d="M1206.5,108.8c0,4.4-4.3,8-9.5,8c-5.2,0-9.5-3.6-9.5-8c0-4.4,4.3-8,9.5-8
				C1202.2,100.7,1206.5,104.3,1206.5,108.8z"/>
			
				<radialGradient id="SVGID_52_" cx="10232.4639" cy="1202.0905" r="5.9247" gradientTransform="matrix(-2.56 0 0 -2.161 27392.0762 2706.4673)" gradientUnits="userSpaceOnUse">
				<stop  offset="0" style="stop-color:#FFFFFF"/>
				<stop  offset="1" style="stop-color:#FFFFFF;stop-opacity:0"/>
			</radialGradient>
			<path class="st55" d="M1181.8,108.8c0-7.1,6.8-12.8,15.2-12.8c8.4,0,15.2,5.7,15.2,12.8s-6.8,12.8-15.2,12.8
				C1188.6,121.6,1181.8,115.8,1181.8,108.8z"/>
		</g>
		<g class="st25">
			<path class="st11" d="M382.8,720.2c0,1.6-1.5,2.8-3.4,2.8s-3.4-1.3-3.4-2.8s1.5-2.8,3.4-2.8S382.8,718.6,382.8,720.2z"/>
			<linearGradient id="SVGID_53_" gradientUnits="userSpaceOnUse" x1="366.3116" y1="730.8376" x2="395.1533" y2="707.4299">
				<stop  offset="0" style="stop-color:#FFFFFF"/>
				<stop  offset="1" style="stop-color:#FFFFFF;stop-opacity:0"/>
			</linearGradient>
			<path class="st56" d="M388.9,720.2c0,4.4-4.3,8-9.5,8s-9.5-3.6-9.5-8s4.3-8,9.5-8S388.9,715.8,388.9,720.2z"/>
			
				<radialGradient id="SVGID_54_" cx="10551.8242" cy="919.1385" r="5.9247" gradientTransform="matrix(-2.56 0 0 -2.161 27392.0762 2706.4673)" gradientUnits="userSpaceOnUse">
				<stop  offset="0" style="stop-color:#FFFFFF"/>
				<stop  offset="1" style="stop-color:#FFFFFF;stop-opacity:0"/>
			</radialGradient>
			<ellipse class="st57" cx="379.4" cy="720.2" rx="15.2" ry="12.8"/>
		</g>
	</g>
	<g class="st58">
		<ellipse class="st59" cx="611.8" cy="286.3" rx="12.8" ry="10.8"/>
		<ellipse class="st59" cx="1123.8" cy="1010.3" rx="12.8" ry="10.8"/>
		<ellipse class="st60" cx="1656.3" cy="104.8" rx="12.8" ry="10.8"/>
		<ellipse class="st60" cx="168.9" cy="165.3" rx="12.8" ry="10.8"/>
		<ellipse class="st60" cx="369.9" cy="933.5" rx="20.5" ry="17.3"/>
		<ellipse class="st60" cx="1798.4" cy="1080.5" rx="20.5" ry="17.3"/>
		<ellipse class="st59" cx="1547.5" cy="659.1" rx="20.5" ry="17.3"/>
	</g>
</g>
</svg>
